<svg xmlns="http://www.w3.org/2000/svg" xmlns:xlink="http://www.w3.org/1999/xlink" viewBox="0 0 864 280.5345">
  <defs>
    <linearGradient id="linear-gradient" x1="3.5067" y1="105.2004" x2="3.5067" y2="175.334" gradientUnits="userSpaceOnUse">
      <stop offset="0.001" stop-color="#87c837"/>
      <stop offset="1" stop-color="#00779b"/>
    </linearGradient>
    <linearGradient id="linear-gradient-2" x1="73.6403" y1="164.814" x2="73.6403" y2="171.8274" xlink:href="#linear-gradient"/>
    <linearGradient id="linear-gradient-3" x1="17.5334" y1="77.147" x2="17.5334" y2="203.3875" xlink:href="#linear-gradient"/>
    <linearGradient id="linear-gradient-4" x1="31.5601" y1="52.6002" x2="31.5601" y2="227.9343" xlink:href="#linear-gradient"/>
    <linearGradient id="linear-gradient-5" x1="45.5869" y1="38.5735" x2="45.5869" y2="206.8942" xlink:href="#linear-gradient"/>
    <linearGradient id="linear-gradient-6" x1="59.6136" y1="24.5468" x2="59.6136" y2="77.147" xlink:href="#linear-gradient"/>
    <linearGradient id="linear-gradient-7" x1="73.6403" y1="17.5334" x2="73.6403" y2="115.7205" xlink:href="#linear-gradient"/>
    <linearGradient id="linear-gradient-8" x1="87.667" y1="10.52" x2="87.667" y2="94.6804" xlink:href="#linear-gradient"/>
    <linearGradient id="linear-gradient-9" x1="101.6937" y1="35.0668" x2="101.6937" y2="84.1603" xlink:href="#linear-gradient"/>
    <linearGradient id="linear-gradient-10" x1="101.6937" y1="3.5067" x2="101.6937" y2="28.0534" xlink:href="#linear-gradient"/>
    <linearGradient id="linear-gradient-11" x1="115.7205" y1="0" x2="115.7205" y2="77.147" xlink:href="#linear-gradient"/>
    <linearGradient id="linear-gradient-12" x1="87.667" y1="185.8541" x2="87.667" y2="270.0144" xlink:href="#linear-gradient"/>
    <linearGradient id="linear-gradient-13" x1="73.6403" y1="178.8407" x2="73.6403" y2="263.0011" xlink:href="#linear-gradient"/>
    <linearGradient id="linear-gradient-14" x1="101.6937" y1="196.3741" x2="101.6937" y2="277.0278" xlink:href="#linear-gradient"/>
    <linearGradient id="linear-gradient-15" x1="115.7205" y1="203.3875" x2="115.7205" y2="238.4543" xlink:href="#linear-gradient"/>
    <linearGradient id="linear-gradient-16" x1="115.7205" y1="245.4677" x2="115.7205" y2="280.5345" xlink:href="#linear-gradient"/>
    <linearGradient id="linear-gradient-17" x1="129.7472" y1="206.8942" x2="129.7472" y2="280.5345" xlink:href="#linear-gradient"/>
    <linearGradient id="linear-gradient-18" x1="129.7472" y1="0" x2="129.7472" y2="73.6403" xlink:href="#linear-gradient"/>
    <linearGradient id="linear-gradient-19" x1="143.7739" y1="210.4009" x2="143.7739" y2="280.5345" xlink:href="#linear-gradient"/>
    <linearGradient id="linear-gradient-20" x1="143.7739" y1="0" x2="143.7739" y2="56.1069" xlink:href="#linear-gradient"/>
    <linearGradient id="linear-gradient-21" x1="157.8006" y1="0" x2="157.8006" y2="73.6403" xlink:href="#linear-gradient"/>
    <linearGradient id="linear-gradient-22" x1="171.8274" y1="3.5067" x2="171.8274" y2="77.147" xlink:href="#linear-gradient"/>
    <linearGradient id="linear-gradient-23" x1="185.8541" y1="7.0134" x2="185.8541" y2="87.667" xlink:href="#linear-gradient"/>
    <linearGradient id="linear-gradient-24" x1="185.8541" y1="192.8675" x2="185.8541" y2="238.4543" xlink:href="#linear-gradient"/>
    <linearGradient id="linear-gradient-25" x1="185.8541" y1="259.4944" x2="185.8541" y2="273.5211" xlink:href="#linear-gradient"/>
    <linearGradient id="linear-gradient-26" x1="199.8808" y1="14.0267" x2="199.8808" y2="80.6537" xlink:href="#linear-gradient"/>
    <linearGradient id="linear-gradient-27" x1="199.8808" y1="199.8808" x2="199.8808" y2="266.5078" xlink:href="#linear-gradient"/>
    <linearGradient id="linear-gradient-28" x1="213.9075" y1="21.0401" x2="213.9075" y2="66.6269" xlink:href="#linear-gradient"/>
    <linearGradient id="linear-gradient-29" x1="213.9075" y1="213.9075" x2="213.9075" y2="259.4944" xlink:href="#linear-gradient"/>
    <linearGradient id="linear-gradient-30" x1="227.9343" y1="31.5601" x2="227.9343" y2="52.6002" xlink:href="#linear-gradient"/>
    <linearGradient id="linear-gradient-31" x1="227.9343" y1="227.9343" x2="227.9343" y2="248.9743" xlink:href="#linear-gradient"/>
    <linearGradient id="linear-gradient-32" x1="171.8274" y1="203.3875" x2="171.8274" y2="277.0278" xlink:href="#linear-gradient"/>
    <linearGradient id="linear-gradient-33" x1="157.8006" y1="206.8942" x2="157.8006" y2="280.5345" xlink:href="#linear-gradient"/>
    <linearGradient id="linear-gradient-34" x1="241.961" y1="42.0802" x2="241.961" y2="49.0935" xlink:href="#linear-gradient"/>
    <linearGradient id="linear-gradient-35" x1="143.7739" y1="63.1203" x2="143.7739" y2="70.1336" xlink:href="#linear-gradient"/>
    <linearGradient id="linear-gradient-36" x1="241.961" y1="231.4409" x2="241.961" y2="238.4543" xlink:href="#linear-gradient"/>
    <linearGradient id="linear-gradient-37" x1="185.8541" y1="245.4677" x2="185.8541" y2="252.481" xlink:href="#linear-gradient"/>
    <linearGradient id="linear-gradient-38" x1="59.6136" y1="84.1603" x2="59.6136" y2="255.9877" xlink:href="#linear-gradient"/>
    <linearGradient id="linear-gradient-39" x1="45.5869" y1="213.9075" x2="45.5869" y2="241.961" xlink:href="#linear-gradient"/>
  </defs>
  <title>canadiana-logo-inverted-rgb</title>
  <g id="invert-rgb">
    <g>
      <g id="logoMark">
        <path id="logoMark_PathItem_" data-name="logoMark &lt;PathItem&gt;" d="M3.5067,175.334A3.5065,3.5065,0,0,1,0,171.8274v-63.12a3.5067,3.5067,0,0,1,7.0134,0v63.12A3.5066,3.5066,0,0,1,3.5067,175.334Z" style="fill: url(#linear-gradient)"/>
        <circle id="logoMark_PathItem_2" data-name="logoMark &lt;PathItem&gt;" cx="73.6403" cy="168.3207" r="3.5067" style="fill: url(#linear-gradient-2)"/>
        <path id="logoMark_PathItem_3" data-name="logoMark &lt;PathItem&gt;" d="M17.5334,203.3875a3.5066,3.5066,0,0,1-3.5067-3.5067V80.6537a3.5067,3.5067,0,0,1,7.0134,0V199.8808A3.5066,3.5066,0,0,1,17.5334,203.3875Z" style="fill: url(#linear-gradient-3)"/>
        <path id="logoMark_PathItem_4" data-name="logoMark &lt;PathItem&gt;" d="M31.56,227.9343a3.5067,3.5067,0,0,1-3.5067-3.5067V56.1069a3.5067,3.5067,0,0,1,7.0134,0V224.4276A3.5066,3.5066,0,0,1,31.56,227.9343Z" style="fill: url(#linear-gradient-4)"/>
        <path id="logoMark_PathItem_5" data-name="logoMark &lt;PathItem&gt;" d="M45.5869,206.8942a3.5066,3.5066,0,0,1-3.5067-3.5067V42.08a3.5067,3.5067,0,1,1,7.0133,0V203.3875A3.5066,3.5066,0,0,1,45.5869,206.8942Z" style="fill: url(#linear-gradient-5)"/>
        <path id="logoMark_PathItem_6" data-name="logoMark &lt;PathItem&gt;" d="M59.6136,77.147A3.5066,3.5066,0,0,1,56.1069,73.64V28.0534a3.5067,3.5067,0,0,1,7.0134,0V73.64A3.5067,3.5067,0,0,1,59.6136,77.147Z" style="fill: url(#linear-gradient-6)"/>
        <path id="logoMark_PathItem_7" data-name="logoMark &lt;PathItem&gt;" d="M73.64,115.7205a3.5067,3.5067,0,0,1-3.5067-3.5067V21.04a3.5067,3.5067,0,0,1,7.0134,0v91.1737A3.5067,3.5067,0,0,1,73.64,115.7205Z" style="fill: url(#linear-gradient-7)"/>
        <path id="logoMark_PathItem_8" data-name="logoMark &lt;PathItem&gt;" d="M87.667,94.68A3.5067,3.5067,0,0,1,84.16,91.1737V14.0267a3.5067,3.5067,0,1,1,7.0134,0v77.147A3.5066,3.5066,0,0,1,87.667,94.68Z" style="fill: url(#linear-gradient-8)"/>
        <path id="logoMark_PathItem_9" data-name="logoMark &lt;PathItem&gt;" d="M101.6937,84.16a3.5065,3.5065,0,0,1-3.5066-3.5066v-42.08a3.5067,3.5067,0,1,1,7.0133,0v42.08A3.5065,3.5065,0,0,1,101.6937,84.16Z" style="fill: url(#linear-gradient-9)"/>
        <path id="logoMark_PathItem_10" data-name="logoMark &lt;PathItem&gt;" d="M101.6937,28.0534a3.5065,3.5065,0,0,1-3.5066-3.5066V7.0134a3.5067,3.5067,0,1,1,7.0133,0V24.5468A3.5065,3.5065,0,0,1,101.6937,28.0534Z" style="fill: url(#linear-gradient-10)"/>
        <path id="logoMark_PathItem_11" data-name="logoMark &lt;PathItem&gt;" d="M115.7205,77.147a3.5066,3.5066,0,0,1-3.5067-3.5067V3.5067a3.5067,3.5067,0,1,1,7.0134,0V73.64A3.5067,3.5067,0,0,1,115.7205,77.147Z" style="fill: url(#linear-gradient-11)"/>
        <path id="logoMark_PathItem_12" data-name="logoMark &lt;PathItem&gt;" d="M87.667,270.0144a3.5066,3.5066,0,0,1-3.5067-3.5066v-77.147a3.5067,3.5067,0,1,1,7.0134,0v77.147A3.5065,3.5065,0,0,1,87.667,270.0144Z" style="fill: url(#linear-gradient-12)"/>
        <path id="logoMark_PathItem_13" data-name="logoMark &lt;PathItem&gt;" d="M73.64,263.0011a3.5067,3.5067,0,0,1-3.5067-3.5067v-77.147a3.5067,3.5067,0,0,1,7.0134,0v77.147A3.5067,3.5067,0,0,1,73.64,263.0011Z" style="fill: url(#linear-gradient-13)"/>
        <path id="logoMark_PathItem_14" data-name="logoMark &lt;PathItem&gt;" d="M101.6937,277.0278a3.5065,3.5065,0,0,1-3.5066-3.5067v-73.64a3.5067,3.5067,0,1,1,7.0133,0v73.64A3.5066,3.5066,0,0,1,101.6937,277.0278Z" style="fill: url(#linear-gradient-14)"/>
        <path id="logoMark_PathItem_15" data-name="logoMark &lt;PathItem&gt;" d="M115.7205,238.4543a3.5066,3.5066,0,0,1-3.5067-3.5067V206.8942a3.5067,3.5067,0,1,1,7.0134,0v28.0534A3.5066,3.5066,0,0,1,115.7205,238.4543Z" style="fill: url(#linear-gradient-15)"/>
        <path id="logoMark_PathItem_16" data-name="logoMark &lt;PathItem&gt;" d="M115.7205,280.5345a3.5066,3.5066,0,0,1-3.5067-3.5067V248.9743a3.5067,3.5067,0,0,1,7.0134,0v28.0535A3.5067,3.5067,0,0,1,115.7205,280.5345Z" style="fill: url(#linear-gradient-16)"/>
        <path id="logoMark_PathItem_17" data-name="logoMark &lt;PathItem&gt;" d="M129.7472,280.5345a3.5067,3.5067,0,0,1-3.5067-3.5067V210.4009a3.5067,3.5067,0,0,1,7.0134,0v66.6269A3.5067,3.5067,0,0,1,129.7472,280.5345Z" style="fill: url(#linear-gradient-17)"/>
        <path id="logoMark_PathItem_18" data-name="logoMark &lt;PathItem&gt;" d="M129.7472,73.64a3.5066,3.5066,0,0,1-3.5067-3.5067V3.5067a3.5067,3.5067,0,1,1,7.0134,0V70.1336A3.5066,3.5066,0,0,1,129.7472,73.64Z" style="fill: url(#linear-gradient-18)"/>
        <path id="logoMark_PathItem_19" data-name="logoMark &lt;PathItem&gt;" d="M143.7739,280.5345a3.5067,3.5067,0,0,1-3.5067-3.5067v-63.12a3.5067,3.5067,0,0,1,7.0134,0v63.12A3.5066,3.5066,0,0,1,143.7739,280.5345Z" style="fill: url(#linear-gradient-19)"/>
        <path id="logoMark_PathItem_20" data-name="logoMark &lt;PathItem&gt;" d="M143.7739,56.1069A3.5066,3.5066,0,0,1,140.2672,52.6V3.5067a3.5067,3.5067,0,1,1,7.0134,0V52.6A3.5066,3.5066,0,0,1,143.7739,56.1069Z" style="fill: url(#linear-gradient-20)"/>
        <path id="logoMark_PathItem_21" data-name="logoMark &lt;PathItem&gt;" d="M157.8006,73.64a3.5065,3.5065,0,0,1-3.5066-3.5067V3.5067a3.5067,3.5067,0,1,1,7.0133,0V70.1336A3.5066,3.5066,0,0,1,157.8006,73.64Z" style="fill: url(#linear-gradient-21)"/>
        <path id="logoMark_PathItem_22" data-name="logoMark &lt;PathItem&gt;" d="M171.8274,77.147a3.5066,3.5066,0,0,1-3.5067-3.5067V7.0134a3.5067,3.5067,0,1,1,7.0134,0V73.64A3.5067,3.5067,0,0,1,171.8274,77.147Z" style="fill: url(#linear-gradient-22)"/>
        <path id="logoMark_PathItem_23" data-name="logoMark &lt;PathItem&gt;" d="M185.8541,87.667a3.5066,3.5066,0,0,1-3.5067-3.5067V10.52a3.5067,3.5067,0,0,1,7.0134,0V84.16A3.5066,3.5066,0,0,1,185.8541,87.667Z" style="fill: url(#linear-gradient-23)"/>
        <path id="logoMark_PathItem_24" data-name="logoMark &lt;PathItem&gt;" d="M185.8541,238.4543a3.5066,3.5066,0,0,1-3.5067-3.5067V196.3741a3.5067,3.5067,0,0,1,7.0134,0v38.5735A3.5066,3.5066,0,0,1,185.8541,238.4543Z" style="fill: url(#linear-gradient-24)"/>
        <path id="logoMark_PathItem_25" data-name="logoMark &lt;PathItem&gt;" d="M185.8541,273.5211a3.5066,3.5066,0,0,1-3.5067-3.5067v-7.0133a3.5067,3.5067,0,1,1,7.0134,0v7.0133A3.5066,3.5066,0,0,1,185.8541,273.5211Z" style="fill: url(#linear-gradient-25)"/>
        <path id="logoMark_PathItem_26" data-name="logoMark &lt;PathItem&gt;" d="M199.8808,80.6537a3.5067,3.5067,0,0,1-3.5067-3.5067V17.5334a3.5067,3.5067,0,1,1,7.0134,0V77.147A3.5066,3.5066,0,0,1,199.8808,80.6537Z" style="fill: url(#linear-gradient-26)"/>
        <path id="logoMark_PathItem_27" data-name="logoMark &lt;PathItem&gt;" d="M199.8808,266.5078a3.5067,3.5067,0,0,1-3.5067-3.5067V203.3875a3.5067,3.5067,0,1,1,7.0134,0v59.6136A3.5066,3.5066,0,0,1,199.8808,266.5078Z" style="fill: url(#linear-gradient-27)"/>
        <path id="logoMark_PathItem_28" data-name="logoMark &lt;PathItem&gt;" d="M213.9075,66.6269a3.5065,3.5065,0,0,1-3.5066-3.5066V24.5468a3.5067,3.5067,0,1,1,7.0133,0V63.12A3.5065,3.5065,0,0,1,213.9075,66.6269Z" style="fill: url(#linear-gradient-28)"/>
        <path id="logoMark_PathItem_29" data-name="logoMark &lt;PathItem&gt;" d="M213.9075,259.4944a3.5065,3.5065,0,0,1-3.5066-3.5067V217.4142a3.5067,3.5067,0,1,1,7.0133,0v38.5735A3.5066,3.5066,0,0,1,213.9075,259.4944Z" style="fill: url(#linear-gradient-29)"/>
        <path id="logoMark_PathItem_30" data-name="logoMark &lt;PathItem&gt;" d="M227.9343,52.6a3.5066,3.5066,0,0,1-3.5067-3.5067V35.0668a3.5067,3.5067,0,1,1,7.0133,0V49.0935A3.5065,3.5065,0,0,1,227.9343,52.6Z" style="fill: url(#linear-gradient-30)"/>
        <path id="logoMark_PathItem_31" data-name="logoMark &lt;PathItem&gt;" d="M227.9343,248.9743a3.5065,3.5065,0,0,1-3.5067-3.5066V231.4409a3.5067,3.5067,0,0,1,7.0133,0v14.0268A3.5065,3.5065,0,0,1,227.9343,248.9743Z" style="fill: url(#linear-gradient-31)"/>
        <path id="logoMark_PathItem_32" data-name="logoMark &lt;PathItem&gt;" d="M171.8274,277.0278a3.5066,3.5066,0,0,1-3.5067-3.5067V206.8942a3.5067,3.5067,0,1,1,7.0134,0v66.6269A3.5066,3.5066,0,0,1,171.8274,277.0278Z" style="fill: url(#linear-gradient-32)"/>
        <path id="logoMark_PathItem_33" data-name="logoMark &lt;PathItem&gt;" d="M157.8006,280.5345a3.5066,3.5066,0,0,1-3.5066-3.5067V210.4009a3.5067,3.5067,0,1,1,7.0133,0v66.6269A3.5066,3.5066,0,0,1,157.8006,280.5345Z" style="fill: url(#linear-gradient-33)"/>
        <circle id="logoMark_PathItem_34" data-name="logoMark &lt;PathItem&gt;" cx="241.961" cy="45.5869" r="3.5067" style="fill: url(#linear-gradient-34)"/>
        <circle id="logoMark_PathItem_35" data-name="logoMark &lt;PathItem&gt;" cx="143.7739" cy="66.6269" r="3.5067" style="fill: url(#linear-gradient-35)"/>
        <circle id="logoMark_PathItem_36" data-name="logoMark &lt;PathItem&gt;" cx="241.961" cy="234.9476" r="3.5067" style="fill: url(#linear-gradient-36)"/>
        <circle id="logoMark_PathItem_37" data-name="logoMark &lt;PathItem&gt;" cx="185.8541" cy="248.9743" r="3.5067" style="fill: url(#linear-gradient-37)"/>
        <path id="logoMark_PathItem_38" data-name="logoMark &lt;PathItem&gt;" d="M59.6136,255.9877a3.5066,3.5066,0,0,1-3.5067-3.5067V87.667a3.5067,3.5067,0,0,1,7.0134,0V252.481A3.5066,3.5066,0,0,1,59.6136,255.9877Z" style="fill: url(#linear-gradient-38)"/>
        <path id="logoMark_PathItem_39" data-name="logoMark &lt;PathItem&gt;" d="M45.5869,241.961a3.5066,3.5066,0,0,1-3.5067-3.5067v-21.04a3.5067,3.5067,0,1,1,7.0133,0v21.04A3.5066,3.5066,0,0,1,45.5869,241.961Z" style="fill: url(#linear-gradient-39)"/>
      </g>
      <path id="fullLogo" d="M373.81,166.594a28.4163,28.4163,0,0,1-4.136,4.9864,37.6934,37.6934,0,0,1-6.809,5.2909,42.15,42.15,0,0,1-9.2423,4.195,37.2061,37.2061,0,0,1-11.5539,1.7027,41.4765,41.4765,0,0,1-16.4166-3.1619,37.7175,37.7175,0,0,1-12.7677-8.8162,40.3231,40.3231,0,0,1-8.331-13.3784,48.5765,48.5765,0,0,1,0-33.501,42.3139,42.3139,0,0,1,8.331-13.6219,38.5129,38.5129,0,0,1,12.8285-9.1795,40.21,40.21,0,0,1,16.5993-3.3446,38.3643,38.3643,0,0,1,20.4918,5.5324,34.5839,34.5839,0,0,1,6.5655,5.1691,37.833,37.833,0,0,1,4.44,5.35l-8.27,7.0545a48.94,48.94,0,0,0-3.4664-4.3187,23.8254,23.8254,0,0,0-4.8038-4.0732,27.97,27.97,0,0,0-6.4437-3.04,26.5865,26.5865,0,0,0-8.3919-1.2157,26.6615,26.6615,0,0,0-20.9769,9.4858,30.52,30.52,0,0,0-5.6543,10.2145,38.9613,38.9613,0,0,0-1.9462,12.4043,37.3628,37.3628,0,0,0,2.0071,12.3434,30.723,30.723,0,0,0,5.6542,10.0319,25.9145,25.9145,0,0,0,8.8771,6.6892,27.3509,27.3509,0,0,0,11.6737,2.4313,28.3293,28.3293,0,0,0,9.425-1.3983,27.0967,27.0967,0,0,0,6.6891-3.3446,26.0072,26.0072,0,0,0,4.4994-3.9515q1.7609-2.0061,2.9794-3.3446Z" style="fill: #fff"/>
      <path id="fullLogo-2" data-name="fullLogo" d="M424.0325,174.0118a18.851,18.851,0,0,1-8.331,6.3239,28.426,28.426,0,0,1-10.6406,2.068,27.4039,27.4039,0,0,1-6.9917-.9113,18.2662,18.2662,0,0,1-6.3239-3.04,15.9828,15.9828,0,0,1-4.6212-5.4734,17.4227,17.4227,0,0,1-1.7636-8.2074q0-9.1206,6.3848-14.5941,6.3838-5.47,18.4238-5.4715,1.9434,0,4.1341.1217,2.1888.1227,4.1341.2435,1.9463.1227,3.4055.2417c.974.0818,1.6608.1636,2.068.2435V143.49q0-6.324-3.8316-9.06-3.83-2.7368-10.3972-2.7377-6.4466,0-10.2145,1.7636a40.4126,40.4126,0,0,0-6.3239,3.5881l-5.1082-7.4178a26.7343,26.7343,0,0,1,3.5272-2.4333,30.46,30.46,0,0,1,4.8647-2.2488,39.65,39.65,0,0,1,6.3239-1.7027,44.1308,44.1308,0,0,1,8.1465-.67q10.947,0,17.2081,5.2909t6.263,15.0183v32.955q0,2.9195.1218,4.9865H424.2761Zm-.1217-19.942c-.3253-.08-.9551-.1826-1.8854-.3044q-1.3983-.1825-3.2228-.3043-1.8235-.12-3.8906-.2436-2.069-.12-4.0143-.1217a21.25,21.25,0,0,0-7.4787,1.0958,12.6718,12.6718,0,0,0-4.4994,2.7358,8.68,8.68,0,0,0-2.2488,3.6471,13.1567,13.1567,0,0,0-.6088,3.8316,8.1845,8.1845,0,0,0,3.162,6.9917q3.162,2.3715,8.7553,2.3724a16.6651,16.6651,0,0,0,6.0195-1.0958,17.6975,17.6975,0,0,0,5.0473-2.9185,14.7852,14.7852,0,0,0,3.5272-4.2559,10.2427,10.2427,0,0,0,1.3375-4.9864Z" style="fill: #fff"/>
      <path id="fullLogo-3" data-name="fullLogo" d="M452.3645,180.8228V130.1117q0-2.7938-.1217-5.8368h10.458l.3653,8.5136q1.0929-1.4611,2.6749-3.2228a18.3331,18.3331,0,0,1,3.8925-3.2228,22.966,22.966,0,0,1,5.4107-2.4314,23.3068,23.3068,0,0,1,6.9916-.9741q11.0669,0,16.4186,6.4457,5.3479,6.4466,5.35,17.51v33.9292H492.8591V147.746q0-7.905-3.4035-11.6148-3.4074-3.707-9.6076-3.708a14.8352,14.8352,0,0,0-7.9049,1.9463,15.043,15.043,0,0,0-5.0473,5.0454,22.62,22.62,0,0,0-2.7358,7.0545,38.3307,38.3307,0,0,0-.85,8.0856v26.2678Z" style="fill: #fff"/>
      <path id="fullLogo-4" data-name="fullLogo" d="M556.9466,174.0118a18.851,18.851,0,0,1-8.331,6.3239,28.4261,28.4261,0,0,1-10.6407,2.068,27.4037,27.4037,0,0,1-6.9916-.9113,18.2662,18.2662,0,0,1-6.3239-3.04,15.9817,15.9817,0,0,1-4.6212-5.4734,17.4227,17.4227,0,0,1-1.7636-8.2074q0-9.1206,6.3848-14.5941,6.3838-5.47,18.4237-5.4715,1.9434,0,4.1342.1217,2.1888.1227,4.1341.2435,1.9462.1227,3.4055.2417c.974.0818,1.6608.1636,2.068.2435V143.49q0-6.324-3.8317-9.06-3.83-2.7368-10.3971-2.7377-6.4465,0-10.2145,1.7636a40.4126,40.4126,0,0,0-6.3239,3.5881l-5.1082-7.4178a26.7343,26.7343,0,0,1,3.5272-2.4333,30.46,30.46,0,0,1,4.8647-2.2488,39.65,39.65,0,0,1,6.3239-1.7027,44.1308,44.1308,0,0,1,8.1465-.67q10.947,0,17.2081,5.2909t6.263,15.0183v32.955q0,2.9195.1218,4.9865H557.19Zm-.1217-19.942c-.3254-.08-.9551-.1826-1.8854-.3044q-1.3983-.1825-3.2228-.3043-1.8235-.12-3.8906-.2436-2.0689-.12-4.0143-.1217a21.25,21.25,0,0,0-7.4787,1.0958,12.6718,12.6718,0,0,0-4.4994,2.7358,8.68,8.68,0,0,0-2.2488,3.6471,13.1567,13.1567,0,0,0-.6088,3.8316,8.1845,8.1845,0,0,0,3.162,6.9917q3.162,2.3715,8.7553,2.3724a16.6651,16.6651,0,0,0,6.0195-1.0958,17.6975,17.6975,0,0,0,5.0473-2.9185,14.7868,14.7868,0,0,0,3.5272-4.2559,10.2427,10.2427,0,0,0,1.3375-4.9864Z" style="fill: #fff"/>
      <path id="fullLogo-5" data-name="fullLogo" d="M626.0187,173.6484q-.6108.7278-2.0053,2.2488a18.2648,18.2648,0,0,1-3.71,2.9793,26.8781,26.8781,0,0,1-5.4107,2.555,21.7749,21.7749,0,0,1-7.2371,1.094,24.1442,24.1442,0,0,1-9.971-2.068,23.7728,23.7728,0,0,1-8.0266-5.8369,26.4755,26.4755,0,0,1-5.289-9.1814,36.5324,36.5324,0,0,1-1.8854-12.1,31.3849,31.3849,0,0,1,2.7967-13.8026,28.9364,28.9364,0,0,1,7.1134-9.4859,28.0842,28.0842,0,0,1,9.3641-5.4107,29.9262,29.9262,0,0,1,9.5468-1.7027,24.7714,24.7714,0,0,1,9.4858,1.4592q3.4017,1.4611,5.2281,2.19V99.71h10.945v75.3979q0,2.6767.1218,5.7151H626.3839Zm0-36.8475a28.15,28.15,0,0,0-4.4994-2.614q-3.2818-1.6439-9.3641-1.6419a18.1786,18.1786,0,0,0-7.357,1.4592,17.4085,17.4085,0,0,0-5.8368,4.1341,18.8119,18.8119,0,0,0-3.8906,6.5675,25.7246,25.7246,0,0,0-1.3984,8.7553,28.8271,28.8271,0,0,0,.9722,7.6,18.2658,18.2658,0,0,0,2.9793,6.263,13.93,13.93,0,0,0,5.1082,4.195,16.5336,16.5336,0,0,0,7.357,1.52,15.6414,15.6414,0,0,0,7.296-1.5809,15.0486,15.0486,0,0,0,4.9256-3.9515,16.3353,16.3353,0,0,0,2.7967-5.23,17.5022,17.5022,0,0,0,.9113-5.2889Z" style="fill: #fff"/>
      <path id="fullLogo-6" data-name="fullLogo" d="M654.9594,101.9H667.242v12.2825H654.9594Zm.7306,22.3753h10.9432v56.5479H655.69Z" style="fill: #fff"/>
      <path id="fullLogo-7" data-name="fullLogo" d="M720.626,174.0118a18.8515,18.8515,0,0,1-8.331,6.3239,28.4265,28.4265,0,0,1-10.6407,2.068,27.4045,27.4045,0,0,1-6.9917-.9113,18.2671,18.2671,0,0,1-6.3239-3.04,15.9815,15.9815,0,0,1-4.6211-5.4734,17.4215,17.4215,0,0,1-1.7636-8.2074q0-9.1206,6.3847-14.5941,6.3838-5.47,18.4238-5.4715,1.9434,0,4.1341.1217,2.1888.1227,4.1342.2435,1.9462.1227,3.4054.2417c.9741.0818,1.6609.1636,2.068.2435V143.49q0-6.324-3.8316-9.06-3.83-2.7368-10.3971-2.7377-6.4467,0-10.2145,1.7636a40.4126,40.4126,0,0,0-6.3239,3.5881l-5.1082-7.4178a26.7276,26.7276,0,0,1,3.5272-2.4333,30.4556,30.4556,0,0,1,4.8647-2.2488,39.6475,39.6475,0,0,1,6.3239-1.7027,44.13,44.13,0,0,1,8.1465-.67q10.9468,0,17.208,5.2909t6.2631,15.0183v32.955q0,2.9195.1217,4.9865H720.87Zm-.1218-19.942c-.3253-.08-.955-.1826-1.8853-.3044q-1.3985-.1825-3.2229-.3043-1.8235-.12-3.8906-.2436-2.069-.12-4.0142-.1217a21.25,21.25,0,0,0-7.4788,1.0958,12.6736,12.6736,0,0,0-4.4994,2.7358,8.6783,8.6783,0,0,0-2.2487,3.6471,13.1567,13.1567,0,0,0-.6088,3.8316,8.1847,8.1847,0,0,0,3.1619,6.9917q3.162,2.3715,8.7553,2.3724a16.6647,16.6647,0,0,0,6.0195-1.0958,17.6994,17.6994,0,0,0,5.0474-2.9185,14.7868,14.7868,0,0,0,3.5272-4.2559,10.2437,10.2437,0,0,0,1.3374-4.9864Z" style="fill: #fff"/>
      <path id="fullLogo-8" data-name="fullLogo" d="M748.96,180.8228V130.1117q0-2.7938-.1218-5.8368h10.458l.3653,8.5136q1.093-1.4611,2.6749-3.2228a18.3331,18.3331,0,0,1,3.8925-3.2228,22.966,22.966,0,0,1,5.4107-2.4314,23.3075,23.3075,0,0,1,6.9917-.9741q11.0668,0,16.4185,6.4457,5.3479,6.4466,5.35,17.51v33.9292H789.4545V147.746q0-7.905-3.4036-11.6148-3.4072-3.707-9.6076-3.708a14.8348,14.8348,0,0,0-7.9048,1.9463,15.0442,15.0442,0,0,0-5.0474,5.0454,22.6253,22.6253,0,0,0-2.7358,7.0545,38.3373,38.3373,0,0,0-.85,8.0856v26.2678Z" style="fill: #fff"/>
      <path id="fullLogo-9" data-name="fullLogo" d="M853.542,174.0118a18.8515,18.8515,0,0,1-8.331,6.3239,28.4265,28.4265,0,0,1-10.6407,2.068,27.4045,27.4045,0,0,1-6.9917-.9113,18.2671,18.2671,0,0,1-6.3239-3.04,15.9815,15.9815,0,0,1-4.6211-5.4734,17.4215,17.4215,0,0,1-1.7636-8.2074q0-9.1206,6.3847-14.5941,6.3838-5.47,18.4238-5.4715,1.9434,0,4.1341.1217,2.1888.1227,4.1342.2435,1.9462.1227,3.4054.2417c.9741.0818,1.6609.1636,2.068.2435V143.49q0-6.324-3.8316-9.06-3.83-2.7368-10.3971-2.7377-6.4467,0-10.2145,1.7636a40.4126,40.4126,0,0,0-6.3239,3.5881l-5.1082-7.4178a26.7276,26.7276,0,0,1,3.5272-2.4333,30.4556,30.4556,0,0,1,4.8647-2.2488,39.6475,39.6475,0,0,1,6.3239-1.7027,44.13,44.13,0,0,1,8.1465-.67q10.9469,0,17.208,5.2909t6.2631,15.0183v32.955q0,2.9195.1217,4.9865H853.7855ZM853.42,154.07c-.3253-.08-.955-.1826-1.8853-.3044q-1.3984-.1825-3.2229-.3043-1.8235-.12-3.8906-.2436-2.0689-.12-4.0142-.1217a21.25,21.25,0,0,0-7.4788,1.0958,12.6727,12.6727,0,0,0-4.4994,2.7358,8.6783,8.6783,0,0,0-2.2487,3.6471,13.1567,13.1567,0,0,0-.6088,3.8316,8.1847,8.1847,0,0,0,3.1619,6.9917q3.162,2.3715,8.7553,2.3724a16.6647,16.6647,0,0,0,6.0195-1.0958,17.6975,17.6975,0,0,0,5.0473-2.9185,14.7856,14.7856,0,0,0,3.5273-4.2559,10.2437,10.2437,0,0,0,1.3374-4.9864Z" style="fill: #fff"/>
    </g>
  </g>
</svg>
