<svg xmlns="http://www.w3.org/2000/svg" width="33.981" height="31.885" viewBox="0 0 33.981 31.885"><defs><style>.a{fill:none;stroke:#fff;stroke-linecap:round;stroke-linejoin:round;stroke-width:1.875px;}</style></defs><g transform="translate(0 -0.929)"><path class="a" d="M5.982,2.931H5.966A6.421,6.421,0,0,0,.938,9.2v1.27a2.141,2.141,0,0,0,2.14,2.14H8.429a2.141,2.141,0,0,0,2.14-2.14h0a2.141,2.141,0,0,1,2.14-2.14h8.562a2.141,2.141,0,0,1,2.14,2.14h0a2.141,2.141,0,0,0,2.14,2.14H30.9a2.141,2.141,0,0,0,2.14-2.14V9.2a6.421,6.421,0,0,0-5.029-6.269H28A57.925,57.925,0,0,0,5.982,2.931Z" transform="translate(0 0)"/><path class="a" d="M4.687,15.031v8.562a6.422,6.422,0,0,0,6.421,6.421h10.7a6.422,6.422,0,0,0,6.421-6.421V15.031" transform="translate(0.531 1.862)"/><path class="a" d="M9.844,16.906h0" transform="translate(1.261 2.128)"/><path class="a" d="M9.91,16.906a.535.535,0,1,0,.535.535h0a.535.535,0,0,0-.535-.535" transform="translate(1.194 2.128)"/><path class="a" d="M15,16.906h0" transform="translate(1.991 2.128)"/><path class="a" d="M15.066,16.906a.535.535,0,1,0,.535.535h0a.535.535,0,0,0-.535-.535" transform="translate(1.924 2.128)"/><path class="a" d="M20.156,16.906h0" transform="translate(2.721 2.128)"/><path class="a" d="M20.223,16.906a.535.535,0,1,0,.535.535h0a.535.535,0,0,0-.535-.535" transform="translate(2.654 2.128)"/><path class="a" d="M9.844,21.594h0" transform="translate(1.261 2.791)"/><path class="a" d="M9.91,21.594a.535.535,0,1,0,.535.535.535.535,0,0,0-.535-.535" transform="translate(1.194 2.791)"/><path class="a" d="M15,21.594h0" transform="translate(1.991 2.791)"/><path class="a" d="M15.066,21.594a.535.535,0,1,0,.535.535.535.535,0,0,0-.535-.535" transform="translate(1.924 2.791)"/><path class="a" d="M20.156,21.594h0" transform="translate(2.721 2.791)"/><path class="a" d="M20.223,21.594a.535.535,0,1,0,.535.535.535.535,0,0,0-.535-.535" transform="translate(2.654 2.791)"/></g></svg>